<?xml version="1.0" encoding="utf-8"?>
<svg viewBox="0 0 576 512" xmlns="http://www.w3.org/2000/svg">
  <path d="M 412.6 175.485 C 402.32 167.141 387.19 168.61 378.85 178.891 C 370.444 189.141 371.944 204.261 382.225 212.671 C 393.5 221.985 400 235.385 400 249.585 C 400 263.775 393.5 277.205 382.19 286.455 C 371.91 294.861 370.41 309.985 378.815 320.235 C 383.534 326.047 390.435 329.047 397.375 329.047 C 402.719 329.047 408.125 327.266 412.565 323.641 C 435.1 305.185 448 278.285 448 249.585 C 448 220.885 435.1 193.985 412.6 175.485 Z M 473.1 101.585 C 462.88 93.241 447.76 94.679 439.32 104.929 C 430.914 115.179 432.414 130.299 442.664 138.709 C 476.6 166.485 496 206.885 496 249.585 C 496 292.285 476.56 332.675 442.69 360.485 C 432.44 368.891 430.94 384.015 439.346 394.265 C 444.096 400.046 450.966 403.046 457.906 403.046 C 463.281 403.046 468.656 401.265 473.126 397.609 C 518.2 360.685 544 306.685 544 249.585 C 544 192.485 518.2 138.485 473.1 101.585 Z M 301.2 28.425 C 289.7 23.238 276.19 25.309 266.77 33.684 L 131.8 153.585 L 48 153.585 C 21.49 153.585 0 175.075 0 200.685 L 0 295.785 C 0 322.295 21.49 342.885 48 342.885 L 131.84 342.885 L 266.74 462.785 C 272.7 470.785 280.3 473.585 288 473.585 C 292.438 473.585 296.959 472.654 301.16 470.748 C 312.7 465.585 320 454.185 320 441.585 L 320 57.585 C 320 44.995 312.7 32.685 301.2 28.425 Z"/>
</svg>